<?xml version="1.0" standalone="no"?>
<!DOCTYPE svg PUBLIC "-//W3C//DTD SVG 20010904//EN"
 "http://www.w3.org/TR/2001/REC-SVG-20010904/DTD/svg10.dtd">
<svg version="1.0" xmlns="http://www.w3.org/2000/svg"
 width="840.000000pt" height="592.000000pt" viewBox="0 0 840.000000 592.000000"
 preserveAspectRatio="xMidYMid meet">

<g transform="translate(0.000000,592.000000) scale(0.100000,-0.100000)"
fill="#000000" stroke="none">
<path d="M4038 5510 c-303 -55 -538 -257 -633 -545 -33 -97 -45 -281 -26 -390
45 -260 235 -493 481 -595 114 -47 215 -64 344 -57 135 7 204 25 321 83 203
100 357 290 417 513 15 55 21 109 21 196 1 148 -17 223 -84 360 -99 204 -277
351 -501 416 -82 23 -262 34 -340 19z"/>
<path d="M3890 3849 c-288 -102 -704 -474 -957 -854 -117 -177 -191 -334 -241
-513 -24 -88 -27 -112 -26 -267 0 -156 2 -176 26 -247 124 -368 462 -571 1032
-619 236 -20 364 0 427 67 28 29 40 30 65 3 10 -12 42 -33 69 -48 49 -25 55
-26 220 -25 662 3 1098 258 1190 695 19 91 19 243 0 355 -42 237 -189 530
-401 794 -158 198 -458 471 -582 529 -26 12 -56 27 -67 34 -81 46 -130 69
-198 93 l-79 27 -101 -101 -102 -102 -93 100 c-51 55 -101 100 -110 99 -9 0
-42 -9 -72 -20z m1172 -1489 c10 -30 21 -86 24 -125 5 -63 4 -74 -18 -105 -64
-94 -216 -142 -508 -161 -220 -14 -256 -22 -324 -70 l-56 -40 -42 35 c-57 49
-112 63 -273 70 -283 12 -470 61 -549 145 -43 45 -47 123 -12 233 41 131 46
129 46 -19 l0 -132 53 -29 c94 -53 219 -77 472 -91 126 -7 160 -12 213 -33
l62 -26 61 25 c52 21 93 27 258 39 206 14 262 23 424 70 l97 28 0 171 1 170
26 -50 c14 -27 34 -74 45 -105z"/>
<path d="M2690 1549 c-165 -42 -288 -127 -335 -232 -97 -215 -19 -474 189
-621 242 -172 664 -270 1253 -292 207 -8 263 1 347 51 l56 34 56 -34 c84 -51
140 -59 354 -51 486 18 871 92 1115 213 206 103 315 234 352 423 40 201 -44
374 -222 456 -74 34 -218 74 -265 74 -14 -1 -53 -22 -90 -50 -180 -138 -469
-239 -770 -269 -281 -28 -409 -23 -512 21 l-47 20 -63 -25 c-88 -35 -157 -41
-353 -28 -423 29 -700 116 -928 293 -27 21 -52 38 -55 37 -4 0 -41 -9 -82 -20z"/>
</g>
</svg>
